<svg width="19" height="19" viewBox="0 0 19 19" fill="none" xmlns="http://www.w3.org/2000/svg">
    <path d="M8.94979 17.2188C9.82062 17.2188 10.5331 16.5063 10.5331 15.6354H7.36645C7.36645 16.5063 8.07895 17.2188 8.94979 17.2188ZM8.94979 4.94792C10.921 4.94792 12.1165 6.54708 12.1165 8.51042V8.58958L13.6998 10.1729V8.51042C13.6998 6.08 12.4094 4.04542 10.1373 3.50708V2.96875C10.1373 2.31167 9.60687 1.78125 8.94979 1.78125C8.2927 1.78125 7.76229 2.31167 7.76229 2.96875V3.50708C7.57229 3.55458 7.39021 3.62583 7.21604 3.68917L8.51437 4.9875C8.65687 4.97167 8.79937 4.94792 8.94979 4.94792ZM3.7327 2.45417L2.61646 3.57042L4.84104 5.795C4.42937 6.58667 4.19979 7.51292 4.19979 8.51042V12.4688L2.61646 14.0521V14.8438H13.8898L15.2673 16.2213L16.3835 15.105L3.7327 2.45417ZM12.1165 13.2604H5.78312V8.51042C5.78312 7.97208 5.87812 7.46542 6.05229 7.00625L12.1165 13.0704V13.2604Z" fill="#333333"/>
</svg>
