<svg width="19" height="19" viewBox="0 0 19 19" fill="none" xmlns="http://www.w3.org/2000/svg">
    <path d="M9.49996 17.2188C10.3708 17.2188 11.0833 16.5063 11.0833 15.6354H7.91663C7.91663 16.5063 8.62913 17.2188 9.49996 17.2188ZM14.25 12.4688V8.51042C14.25 6.08 12.9595 4.04542 10.6875 3.50708V2.96875C10.6875 2.31167 10.157 1.78125 9.49996 1.78125C8.84288 1.78125 8.31246 2.31167 8.31246 2.96875V3.50708C6.04829 4.04542 4.74996 6.07208 4.74996 8.51042V12.4688L3.16663 14.0521V14.8438H15.8333V14.0521L14.25 12.4688ZM12.6666 13.2604H6.33329V8.51042C6.33329 6.54708 7.52871 4.94792 9.49996 4.94792C11.4712 4.94792 12.6666 6.54708 12.6666 8.51042V13.2604Z" fill="#333333"/>
</svg>
