<svg width="19" height="19" viewBox="0 0 19 19" fill="none" xmlns="http://www.w3.org/2000/svg">
<g clip-path="url(#clip0_816_7555)">
<path d="M4.94792 16.625H8.11458C8.11458 17.4958 7.40208 18.2083 6.53125 18.2083C5.66042 18.2083 4.94792 17.4958 4.94792 16.625ZM3.36458 15.8333H9.69792V14.25H3.36458V15.8333ZM12.4688 8.31246C12.4688 11.3366 10.3629 12.9516 9.48417 13.4583H3.57833C2.69958 12.9516 0.59375 11.3366 0.59375 8.31246C0.59375 5.03496 3.25375 2.37496 6.53125 2.37496C9.80875 2.37496 12.4688 5.03496 12.4688 8.31246ZM10.8854 8.31246C10.8854 5.91371 8.93 3.95829 6.53125 3.95829C4.1325 3.95829 2.17708 5.91371 2.17708 8.31246C2.17708 10.2679 3.35667 11.392 4.0375 11.875H9.025C9.70583 11.392 10.8854 10.2679 10.8854 8.31246ZM16.3242 6.62621L15.2396 7.12496L16.3242 7.62371L16.8229 8.70829L17.3217 7.62371L18.4062 7.12496L17.3217 6.62621L16.8229 5.54163L16.3242 6.62621ZM14.4479 5.54163L15.1921 3.91079L16.8229 3.16663L15.1921 2.42246L14.4479 0.791626L13.7037 2.42246L12.0729 3.16663L13.7037 3.91079L14.4479 5.54163Z" fill="#333333"/>
</g>
<defs>
<clipPath id="clip0_816_7555">
<rect width="19" height="19" fill="white"/>
</clipPath>
</defs>
</svg>
