<svg width="19" height="19" viewBox="0 0 19 19" fill="none" xmlns="http://www.w3.org/2000/svg">
<path d="M9.104 1.58301L4.74984 8.70801H13.4582L9.104 1.58301ZM9.104 4.62301L10.6319 7.12467H7.56817L9.104 4.62301ZM13.4582 10.2913C11.4869 10.2913 9.89567 11.8826 9.89567 13.8538C9.89567 15.8251 11.4869 17.4163 13.4582 17.4163C15.4294 17.4163 17.0207 15.8251 17.0207 13.8538C17.0207 11.8826 15.4294 10.2913 13.4582 10.2913ZM13.4582 15.833C12.3657 15.833 11.479 14.9463 11.479 13.8538C11.479 12.7613 12.3657 11.8747 13.4582 11.8747C14.5507 11.8747 15.4373 12.7613 15.4373 13.8538C15.4373 14.9463 14.5507 15.833 13.4582 15.833ZM1.979 17.0205H8.31234V10.6872H1.979V17.0205ZM3.56234 12.2705H6.729V15.4372H3.56234V12.2705Z" fill="#333333"/>
</svg>
