<svg width="22" height="22" viewBox="0 0 22 22" fill="none" xmlns="http://www.w3.org/2000/svg">
<path d="M11.0002 1.83337C5.94016 1.83337 1.8335 5.94004 1.8335 11C1.8335 16.06 5.94016 20.1667 11.0002 20.1667C16.0602 20.1667 20.1668 16.06 20.1668 11C20.1668 5.94004 16.0602 1.83337 11.0002 1.83337ZM11.0002 18.3334C6.95766 18.3334 3.66683 15.0425 3.66683 11C3.66683 6.95754 6.95766 3.66671 11.0002 3.66671C15.0427 3.66671 18.3335 6.95754 18.3335 11C18.3335 15.0425 15.0427 18.3334 11.0002 18.3334ZM15.2077 6.94837L9.16683 12.9892L6.79266 10.6242L5.50016 11.9167L9.16683 15.5834L16.5002 8.25004L15.2077 6.94837Z" fill="#333333"/>
</svg>
