<svg width="19" height="19" viewBox="0 0 19 19" fill="none" xmlns="http://www.w3.org/2000/svg">
<path d="M15.4232 9.97627C14.1803 6.74627 9.75488 6.5721 10.8236 1.87752C10.9028 1.52919 10.5307 1.26002 10.2299 1.4421C7.35613 3.13627 5.28988 6.53252 7.02363 10.9817C7.16613 11.3459 6.73863 11.6863 6.42988 11.4488C4.99696 10.3642 4.84655 8.8046 4.97321 7.68835C5.02071 7.27669 4.48238 7.07877 4.2528 7.41919C3.71446 8.24252 3.16821 9.57252 3.16821 11.5754C3.46905 16.0088 7.21363 17.3704 8.55946 17.5446C10.4832 17.79 12.5653 17.4338 14.0615 16.0642C15.7082 14.5363 16.3099 12.0979 15.4232 9.97627ZM8.07655 13.9584C9.21655 13.6813 9.80238 12.8579 9.96071 12.1296C10.222 10.9975 9.20071 9.88919 9.88946 8.10002C10.1507 9.58044 12.4782 10.5067 12.4782 12.1217C12.5415 14.1246 10.3724 15.8425 8.07655 13.9584Z" fill="#333333"/>
</svg>
