<svg width="19" height="19" viewBox="0 0 19 19" fill="none" xmlns="http://www.w3.org/2000/svg">
<path d="M15.423 9.97627C14.1801 6.74627 9.75464 6.5721 10.8234 1.87752C10.9026 1.52919 10.5305 1.26002 10.2296 1.4421C7.35589 3.13627 5.28964 6.53252 7.02339 10.9817C7.16589 11.3459 6.73839 11.6863 6.42964 11.4488C4.99672 10.3642 4.8463 8.8046 4.97297 7.68835C5.02047 7.27669 4.48214 7.07877 4.25255 7.41919C3.71422 8.24252 3.16797 9.57252 3.16797 11.5754C3.4688 16.0088 7.21339 17.3704 8.55922 17.5446C10.483 17.79 12.5651 17.4338 14.0613 16.0642C15.708 14.5363 16.3096 12.0979 15.423 9.97627ZM8.0763 13.9584C9.2163 13.6813 9.80214 12.8579 9.96047 12.1296C10.2217 10.9975 9.20047 9.88919 9.88922 8.10002C10.1505 9.58044 12.478 10.5067 12.478 12.1217C12.5413 14.1246 10.3721 15.8425 8.0763 13.9584Z" fill="#FF6B6B"/>
</svg>
