<svg width="176" height="36" viewBox="0 0 176 36" fill="none" xmlns="http://www.w3.org/2000/svg">
<path d="M23.2155 25.496C23.2155 27.512 22.7195 29.272 21.7275 30.776C20.7355 32.28 19.2955 33.448 17.4075 34.28C15.5515 35.08 13.2795 35.48 10.5915 35.48C9.4075 35.48 8.2395 35.4 7.0875 35.24C5.9675 35.08 4.8795 34.856 3.8235 34.568C2.7995 34.248 1.8235 33.864 0.8955 33.416V26.648C2.5275 27.352 4.2075 28.008 5.9355 28.616C7.6955 29.192 9.4395 29.48 11.1675 29.48C12.3515 29.48 13.2955 29.32 13.9995 29C14.7355 28.68 15.2635 28.248 15.5835 27.704C15.9355 27.16 16.1115 26.536 16.1115 25.832C16.1115 24.968 15.8075 24.232 15.1995 23.624C14.6235 23.016 13.8395 22.456 12.8475 21.944C11.8555 21.4 10.7195 20.824 9.4395 20.216C8.6395 19.832 7.7755 19.384 6.8475 18.872C5.9195 18.328 5.0235 17.672 4.1595 16.904C3.3275 16.104 2.6395 15.144 2.0955 14.024C1.5515 12.904 1.2795 11.56 1.2795 9.992C1.2795 7.944 1.7435 6.2 2.6715 4.76C3.6315 3.288 4.9755 2.168 6.7035 1.4C8.4635 0.631998 10.5275 0.247998 12.8955 0.247998C14.6875 0.247998 16.3835 0.455998 17.9835 0.871999C19.6155 1.288 21.3115 1.88 23.0715 2.648L20.7195 8.312C19.1515 7.672 17.7435 7.176 16.4955 6.824C15.2475 6.472 13.9675 6.296 12.6555 6.296C11.7595 6.296 10.9915 6.44 10.3515 6.728C9.7115 7.016 9.2155 7.416 8.8635 7.928C8.5435 8.44 8.3835 9.048 8.3835 9.752C8.3835 10.552 8.6235 11.24 9.1035 11.816C9.5835 12.36 10.3035 12.888 11.2635 13.4C12.2235 13.912 13.4235 14.52 14.8635 15.224C16.6235 16.056 18.1115 16.92 19.3275 17.816C20.5755 18.712 21.5355 19.768 22.2075 20.984C22.8795 22.2 23.2155 23.704 23.2155 25.496ZM57.525 35H50.277V20.216H36.693V35H29.445V0.727998H36.693V14.168H50.277V0.727998H57.525V35ZM97.2521 17.816C97.2521 20.472 96.9161 22.888 96.2441 25.064C95.6041 27.208 94.6121 29.064 93.2681 30.632C91.9561 32.2 90.2601 33.4 88.1801 34.232C86.1321 35.064 83.7161 35.48 80.9321 35.48C78.1481 35.48 75.7161 35.064 73.6361 34.232C71.5881 33.368 69.8921 32.168 68.5481 30.632C67.2361 29.064 66.2441 27.192 65.5721 25.016C64.9321 22.84 64.6121 20.424 64.6121 17.768C64.6121 14.216 65.1881 11.128 66.3401 8.504C67.5241 5.88 69.3161 3.848 71.7161 2.408C74.1481 0.935999 77.2361 0.199999 80.9801 0.199999C84.6921 0.199999 87.7481 0.935999 90.1481 2.408C92.5481 3.848 94.3241 5.896 95.4761 8.552C96.6601 11.176 97.2521 14.264 97.2521 17.816ZM72.2441 17.816C72.2441 20.216 72.5481 22.28 73.1561 24.008C73.7641 25.736 74.7081 27.064 75.9881 27.992C77.2681 28.92 78.9161 29.384 80.9321 29.384C83.0121 29.384 84.6761 28.92 85.9241 27.992C87.2041 27.064 88.1321 25.736 88.7081 24.008C89.3161 22.28 89.6201 20.216 89.6201 17.816C89.6201 14.2 88.9481 11.368 87.6041 9.32C86.2601 7.272 84.0521 6.248 80.9801 6.248C78.9321 6.248 77.2681 6.712 75.9881 7.64C74.7081 8.568 73.7641 9.896 73.1561 11.624C72.5481 13.352 72.2441 15.416 72.2441 17.816ZM135.455 17.816C135.455 20.472 135.119 22.888 134.447 25.064C133.807 27.208 132.815 29.064 131.471 30.632C130.159 32.2 128.463 33.4 126.383 34.232C124.335 35.064 121.919 35.48 119.135 35.48C116.351 35.48 113.919 35.064 111.839 34.232C109.791 33.368 108.095 32.168 106.751 30.632C105.439 29.064 104.447 27.192 103.775 25.016C103.135 22.84 102.815 20.424 102.815 17.768C102.815 14.216 103.391 11.128 104.543 8.504C105.727 5.88 107.519 3.848 109.919 2.408C112.351 0.935999 115.439 0.199999 119.183 0.199999C122.895 0.199999 125.951 0.935999 128.351 2.408C130.751 3.848 132.527 5.896 133.679 8.552C134.863 11.176 135.455 14.264 135.455 17.816ZM110.447 17.816C110.447 20.216 110.751 22.28 111.359 24.008C111.967 25.736 112.911 27.064 114.191 27.992C115.471 28.92 117.119 29.384 119.135 29.384C121.215 29.384 122.879 28.92 124.127 27.992C125.407 27.064 126.335 25.736 126.911 24.008C127.519 22.28 127.823 20.216 127.823 17.816C127.823 14.2 127.151 11.368 125.807 9.32C124.463 7.272 122.255 6.248 119.183 6.248C117.135 6.248 115.471 6.712 114.191 7.64C112.911 8.568 111.967 9.896 111.359 11.624C110.751 13.352 110.447 15.416 110.447 17.816ZM154.301 35H147.053V6.776H137.741V0.727998H163.613V6.776H154.301V35ZM174.322 23.624H168.61L167.41 0.727998H175.522L174.322 23.624ZM167.314 31.64C167.314 30.168 167.714 29.144 168.514 28.568C169.314 27.96 170.29 27.656 171.442 27.656C172.562 27.656 173.522 27.96 174.322 28.568C175.122 29.144 175.522 30.168 175.522 31.64C175.522 33.048 175.122 34.072 174.322 34.712C173.522 35.32 172.562 35.624 171.442 35.624C170.29 35.624 169.314 35.32 168.514 34.712C167.714 34.072 167.314 33.048 167.314 31.64Z" fill="#333333"/>
</svg>
