<svg width="30" height="30" viewBox="0 0 30 30" fill="none" xmlns="http://www.w3.org/2000/svg">
<path d="M22.5 10.625H21.25V8.125C21.25 4.675 18.45 1.875 15 1.875C11.55 1.875 8.75 4.675 8.75 8.125V10.625H7.5C6.125 10.625 5 11.75 5 13.125V25.625C5 27 6.125 28.125 7.5 28.125H22.5C23.875 28.125 25 27 25 25.625V13.125C25 11.75 23.875 10.625 22.5 10.625ZM11.25 8.125C11.25 6.05 12.925 4.375 15 4.375C17.075 4.375 18.75 6.05 18.75 8.125V10.625H11.25V8.125ZM22.5 25.625H7.5V13.125H22.5V25.625ZM15 21.875C16.375 21.875 17.5 20.75 17.5 19.375C17.5 18 16.375 16.875 15 16.875C13.625 16.875 12.5 18 12.5 19.375C12.5 20.75 13.625 21.875 15 21.875Z" fill="#C8C8C8"/>
</svg>
