<svg width="24" height="24" viewBox="0 0 24 24" fill="none" xmlns="http://www.w3.org/2000/svg">
    <path d="M14.7125 3.25L20.75 9.2875V20.75H3.25V3.25H14.7125ZM14.7125 0.75H3.25C1.875 0.75 0.75 1.875 0.75 3.25V20.75C0.75 22.125 1.875 23.25 3.25 23.25H20.75C22.125 23.25 23.25 22.125 23.25 20.75V9.2875C23.25 8.625 22.9875 7.9875 22.5125 7.525L16.475 1.4875C16.0125 1.0125 15.375 0.75 14.7125 0.75ZM5.75 15.75H18.25V18.25H5.75V15.75ZM5.75 10.75H18.25V13.25H5.75V10.75ZM5.75 5.75H14.5V8.25H5.75V5.75Z" fill="black"/>
</svg>
