<svg width="19" height="19" viewBox="0 0 19 19" fill="none" xmlns="http://www.w3.org/2000/svg">
    <path d="M12.4529 2.375H6.54708L2.375 6.54708V12.4529L6.54708 16.625H12.4529L16.625 12.4529V6.54708L12.4529 2.375ZM15.0417 11.7958L11.7958 15.0417H7.20417L3.95833 11.7958V7.20417L7.20417 3.95833H11.7958L15.0417 7.20417V11.7958Z" fill="#333333"/>
    <path d="M9.5 13.4583C9.93723 13.4583 10.2917 13.1039 10.2917 12.6667C10.2917 12.2294 9.93723 11.875 9.5 11.875C9.06277 11.875 8.70833 12.2294 8.70833 12.6667C8.70833 13.1039 9.06277 13.4583 9.5 13.4583Z" fill="#333333"/>
    <path d="M8.70833 5.54167H10.2917V11.0833H8.70833V5.54167Z" fill="#333333"/>
</svg>
