<svg width="19" height="19" viewBox="0 0 19 19" fill="none" xmlns="http://www.w3.org/2000/svg">
    <path d="M14.25 12.7619C13.6483 12.7619 13.11 12.9994 12.6983 13.3715L7.05375 10.0861C7.09333 9.90398 7.125 9.7219 7.125 9.5319C7.125 9.3419 7.09333 9.15982 7.05375 8.97773L12.635 5.72398C13.0625 6.11982 13.6246 6.36523 14.25 6.36523C15.5642 6.36523 16.625 5.3044 16.625 3.99023C16.625 2.67607 15.5642 1.61523 14.25 1.61523C12.9358 1.61523 11.875 2.67607 11.875 3.99023C11.875 4.18023 11.9067 4.36232 11.9463 4.5444L6.365 7.79815C5.9375 7.40232 5.37542 7.1569 4.75 7.1569C3.43583 7.1569 2.375 8.21773 2.375 9.5319C2.375 10.8461 3.43583 11.9069 4.75 11.9069C5.37542 11.9069 5.9375 11.6615 6.365 11.2657L12.0017 14.559C11.9621 14.7252 11.9383 14.8994 11.9383 15.0736C11.9383 16.3482 12.9754 17.3852 14.25 17.3852C15.5246 17.3852 16.5617 16.3482 16.5617 15.0736C16.5617 13.799 15.5246 12.7619 14.25 12.7619ZM14.25 3.19857C14.6854 3.19857 15.0417 3.55482 15.0417 3.99023C15.0417 4.42565 14.6854 4.7819 14.25 4.7819C13.8146 4.7819 13.4583 4.42565 13.4583 3.99023C13.4583 3.55482 13.8146 3.19857 14.25 3.19857ZM4.75 10.3236C4.31458 10.3236 3.95833 9.96732 3.95833 9.5319C3.95833 9.09648 4.31458 8.74023 4.75 8.74023C5.18542 8.74023 5.54167 9.09648 5.54167 9.5319C5.54167 9.96732 5.18542 10.3236 4.75 10.3236ZM14.25 15.8811C13.8146 15.8811 13.4583 15.5248 13.4583 15.0894C13.4583 14.654 13.8146 14.2977 14.25 14.2977C14.6854 14.2977 15.0417 14.654 15.0417 15.0894C15.0417 15.5248 14.6854 15.8811 14.25 15.8811Z" fill="#333333"/>
</svg>
