<svg width="118" height="25" viewBox="0 0 118 25" fill="none" xmlns="http://www.w3.org/2000/svg">
    <path d="M15.477 17.664C15.477 19.008 15.1463 20.1813 14.485 21.184C13.8237 22.1867 12.8637 22.9653 11.605 23.52C10.3677 24.0533 8.853 24.32 7.061 24.32C6.27167 24.32 5.493 24.2667 4.725 24.16C3.97833 24.0533 3.253 23.904 2.549 23.712C1.86633 23.4987 1.21567 23.2427 0.597 22.944V18.432C1.685 18.9013 2.805 19.3387 3.957 19.744C5.13033 20.128 6.293 20.32 7.445 20.32C8.23433 20.32 8.86367 20.2133 9.333 20C9.82367 19.7867 10.1757 19.4987 10.389 19.136C10.6237 18.7733 10.741 18.3573 10.741 17.888C10.741 17.312 10.5383 16.8213 10.133 16.416C9.749 16.0107 9.22633 15.6373 8.565 15.296C7.90367 14.9333 7.14633 14.5493 6.293 14.144C5.75967 13.888 5.18367 13.5893 4.565 13.248C3.94633 12.8853 3.349 12.448 2.773 11.936C2.21833 11.4027 1.75967 10.7627 1.397 10.016C1.03433 9.26933 0.853 8.37333 0.853 7.328C0.853 5.96267 1.16233 4.8 1.781 3.84C2.421 2.85866 3.317 2.112 4.469 1.6C5.64233 1.088 7.01833 0.831999 8.597 0.831999C9.79167 0.831999 10.9223 0.970666 11.989 1.248C13.077 1.52533 14.2077 1.92 15.381 2.432L13.813 6.208C12.7677 5.78133 11.829 5.45067 10.997 5.216C10.165 4.98133 9.31167 4.864 8.437 4.864C7.83967 4.864 7.32767 4.96 6.901 5.152C6.47433 5.344 6.14367 5.61067 5.909 5.952C5.69567 6.29333 5.589 6.69867 5.589 7.168C5.589 7.70133 5.749 8.16 6.069 8.544C6.389 8.90667 6.869 9.25867 7.509 9.6C8.149 9.94133 8.949 10.3467 9.909 10.816C11.0823 11.3707 12.0743 11.9467 12.885 12.544C13.717 13.1413 14.357 13.8453 14.805 14.656C15.253 15.4667 15.477 16.4693 15.477 17.664ZM38.35 24H33.518V14.144H24.462V24H19.63V1.152H24.462V10.112H33.518V1.152H38.35V24ZM64.8348 12.544C64.8348 14.3147 64.6108 15.9253 64.1628 17.376C63.7361 18.8053 63.0748 20.0427 62.1788 21.088C61.3041 22.1333 60.1734 22.9333 58.7868 23.488C57.4214 24.0427 55.8108 24.32 53.9548 24.32C52.0988 24.32 50.4774 24.0427 49.0908 23.488C47.7254 22.912 46.5948 22.112 45.6988 21.088C44.8241 20.0427 44.1628 18.7947 43.7148 17.344C43.2881 15.8933 43.0748 14.2827 43.0748 12.512C43.0748 10.144 43.4588 8.08533 44.2268 6.336C45.0161 4.58667 46.2108 3.232 47.8108 2.272C49.4321 1.29067 51.4908 0.799999 53.9868 0.799999C56.4614 0.799999 58.4988 1.29067 60.0988 2.272C61.6988 3.232 62.8828 4.59733 63.6508 6.368C64.4401 8.11733 64.8348 10.176 64.8348 12.544ZM48.1628 12.544C48.1628 14.144 48.3654 15.52 48.7708 16.672C49.1761 17.824 49.8054 18.7093 50.6588 19.328C51.5121 19.9467 52.6108 20.256 53.9548 20.256C55.3414 20.256 56.4508 19.9467 57.2828 19.328C58.1361 18.7093 58.7548 17.824 59.1388 16.672C59.5441 15.52 59.7468 14.144 59.7468 12.544C59.7468 10.1333 59.2988 8.24533 58.4028 6.88C57.5068 5.51467 56.0348 4.832 53.9868 4.832C52.6214 4.832 51.5121 5.14133 50.6588 5.76C49.8054 6.37867 49.1761 7.264 48.7708 8.416C48.3654 9.568 48.1628 10.944 48.1628 12.544ZM90.3035 12.544C90.3035 14.3147 90.0795 15.9253 89.6315 17.376C89.2048 18.8053 88.5435 20.0427 87.6475 21.088C86.7728 22.1333 85.6422 22.9333 84.2555 23.488C82.8902 24.0427 81.2795 24.32 79.4235 24.32C77.5675 24.32 75.9462 24.0427 74.5595 23.488C73.1942 22.912 72.0635 22.112 71.1675 21.088C70.2928 20.0427 69.6315 18.7947 69.1835 17.344C68.7568 15.8933 68.5435 14.2827 68.5435 12.512C68.5435 10.144 68.9275 8.08533 69.6955 6.336C70.4848 4.58667 71.6795 3.232 73.2795 2.272C74.9008 1.29067 76.9595 0.799999 79.4555 0.799999C81.9302 0.799999 83.9675 1.29067 85.5675 2.272C87.1675 3.232 88.3515 4.59733 89.1195 6.368C89.9088 8.11733 90.3035 10.176 90.3035 12.544ZM73.6315 12.544C73.6315 14.144 73.8342 15.52 74.2395 16.672C74.6448 17.824 75.2742 18.7093 76.1275 19.328C76.9808 19.9467 78.0795 20.256 79.4235 20.256C80.8102 20.256 81.9195 19.9467 82.7515 19.328C83.6048 18.7093 84.2235 17.824 84.6075 16.672C85.0128 15.52 85.2155 14.144 85.2155 12.544C85.2155 10.1333 84.7675 8.24533 83.8715 6.88C82.9755 5.51467 81.5035 4.832 79.4555 4.832C78.0902 4.832 76.9808 5.14133 76.1275 5.76C75.2742 6.37867 74.6448 7.264 74.2395 8.416C73.8342 9.568 73.6315 10.944 73.6315 12.544ZM102.868 24H98.0355V5.184H91.8275V1.152H109.076V5.184H102.868V24ZM116.215 16.416H112.407L111.607 1.152H117.015L116.215 16.416ZM111.543 21.76C111.543 20.7787 111.809 20.096 112.343 19.712C112.876 19.3067 113.527 19.104 114.295 19.104C115.041 19.104 115.681 19.3067 116.215 19.712C116.748 20.096 117.015 20.7787 117.015 21.76C117.015 22.6987 116.748 23.3813 116.215 23.808C115.681 24.2133 115.041 24.416 114.295 24.416C113.527 24.416 112.876 24.2133 112.343 23.808C111.809 23.3813 111.543 22.6987 111.543 21.76Z" fill="#333333"/>
</svg>
