<svg width="60" height="40" viewBox="0 0 60 40" fill="none" xmlns="http://www.w3.org/2000/svg">
<path d="M47.7123 15.1C46.0356 6.475 38.5644 0 29.589 0C22.463 0 16.274 4.1 13.1918 10.1C5.76986 10.9 0 17.275 0 25C0 33.275 6.63288 40 14.7945 40H46.8493C53.6548 40 59.1781 34.4 59.1781 27.5C59.1781 20.9 54.1233 15.55 47.7123 15.1ZM46.8493 35H14.7945C9.34521 35 4.93151 30.525 4.93151 25C4.93151 19.875 8.70411 15.6 13.7096 15.075L16.3479 14.8L17.5808 12.425C19.9233 7.85 24.5096 5 29.589 5C36.0493 5 41.6219 9.65 42.8795 16.075L43.6192 19.825L47.3918 20.1C51.2384 20.35 54.2466 23.625 54.2466 27.5C54.2466 31.625 50.9178 35 46.8493 35ZM19.726 22.5H26.0137V30H33.1644V22.5H39.4521L29.589 12.5L19.726 22.5Z" fill="#C8C8C8"/>
</svg>
