<svg width="19" height="19" viewBox="0 0 19 19" fill="none" xmlns="http://www.w3.org/2000/svg">
<path d="M10.6875 2.375C6.75292 2.375 3.5625 5.56542 3.5625 9.5H1.1875L4.26708 12.5796L4.3225 12.6904L7.52083 9.5H5.14583C5.14583 6.43625 7.62375 3.95833 10.6875 3.95833C13.7513 3.95833 16.2292 6.43625 16.2292 9.5C16.2292 12.5638 13.7513 15.0417 10.6875 15.0417C9.15958 15.0417 7.77417 14.4163 6.77667 13.4108L5.6525 14.535C6.94292 15.8254 8.71625 16.625 10.6875 16.625C14.6221 16.625 17.8125 13.4346 17.8125 9.5C17.8125 5.56542 14.6221 2.375 10.6875 2.375ZM9.89583 6.33333V10.2917L13.2604 12.2867L13.87 11.2733L11.0833 9.61875V6.33333H9.89583Z" fill="#333333"/>
</svg>
